<?xml version="1.0" encoding="utf-8"?>
<!-- Generator: Adobe Illustrator 24.3.0, SVG Export Plug-In . SVG Version: 6.00 Build 0)  -->
<svg version="1.1" id="Layer_1" xmlns="http://www.w3.org/2000/svg" xmlns:xlink="http://www.w3.org/1999/xlink" x="0px" y="0px"
	 viewBox="0 0 3000 2000" style="enable-background:new 0 0 3000 2000;" xml:space="preserve">
<style type="text/css">
	.st0{fill:#DB6161;}
	.st1{fill:#233862;}
	.st2{fill:#E69D43;}
	.st3{fill:#D57912;}
	.st4{fill:#B65615;}
	.st5{fill:#D36E2A;}
	.st6{fill:#F59040;}
	.st7{fill:#DCE7F9;}
	.st8{fill:#D15050;}
	.st9{fill:#B64C41;}
	.st10{fill:#A03C37;}
	.st11{fill:#C44943;}
	.st12{fill:#2B478B;}
	.st13{fill:#FFB27D;}
	.st14{fill:#ED985F;}
</style>
<g>
	<g>
		<g>
			<polygon class="st0" points="535.7,424.4 1747.8,424.4 1747.8,1450.8 389.7,1450.8 			"/>
			<polygon class="st1" points="588.7,459.5 1962.4,459.5 1962.4,1450.8 446.2,1450.8 			"/>
			<g>
				<g>
					<g>
						<g>
							<rect x="994.4" y="1261.4" class="st2" width="186.8" height="189.4"/>
							<rect x="916.7" y="1261.4" class="st3" width="85.5" height="189.4"/>
						</g>
					</g>
				</g>
			</g>
			<g>
				<g>
					<g>
						<g>
							<rect x="881.3" y="1077.1" class="st2" width="309.8" height="186.8"/>
							<rect x="803.6" y="1077.1" class="st3" width="85.5" height="186.8"/>
						</g>
					</g>
				</g>
			</g>
			<path class="st4" d="M2487.2,1522.4h414.1c5.5,0,10-4.5,10-10v-172.5c0-5.5-4.5-10-10-10h-414.1c-5.5,0-10,4.5-10,10v172.5
				C2477.2,1517.9,2481.7,1522.4,2487.2,1522.4z"/>
			<ellipse class="st1" cx="1283.4" cy="1586" rx="174" ry="174"/>
			
				<ellipse transform="matrix(0.7071 -0.7071 0.7071 0.7071 -940.6235 901.1348)" class="st1" cx="617.5" cy="1586" rx="174" ry="174"/>
			<ellipse class="st1" cx="2678" cy="1586" rx="174" ry="174"/>
			<circle class="st5" cx="2678.1" cy="1586" r="87.8"/>
			<circle class="st6" cx="2678.1" cy="1586" r="87.8"/>
			<path class="st5" d="M2619.6,1520.5c-4.9,11-7.7,23.1-7.7,36c0,48.5,39.3,87.8,87.8,87.8c22.5,0,42.9-8.4,58.5-22.3
				c-13.7,30.6-44.4,51.9-80.1,51.9c-48.5,0-87.8-39.3-87.8-87.8C2590.2,1560,2601.6,1536.6,2619.6,1520.5z"/>
			<circle class="st4" cx="2678.1" cy="1586" r="27.2"/>
			<circle class="st4" cx="2724.4" cy="1632.7" r="10.5"/>
			<circle class="st4" cx="2736.7" cy="1554.4" r="10.5"/>
			<circle class="st4" cx="2620.7" cy="1554.4" r="10.5"/>
			<circle class="st4" cx="2629.5" cy="1632.7" r="10.5"/>
			<circle class="st4" cx="2678.1" cy="1518.9" r="10.5"/>
			<circle class="st5" cx="1286.7" cy="1586" r="87.8"/>
			<circle class="st5" cx="1286.7" cy="1586" r="87.8"/>
			<circle class="st4" cx="1286.7" cy="1586" r="27.2"/>
			<circle class="st4" cx="1333" cy="1632.7" r="10.5"/>
			<circle class="st4" cx="1345.3" cy="1554.4" r="10.5"/>
			<circle class="st4" cx="1229.3" cy="1554.4" r="10.5"/>
			<circle class="st4" cx="1238.1" cy="1632.7" r="10.5"/>
			<circle class="st4" cx="1286.7" cy="1518.9" r="10.5"/>
			<ellipse class="st1" cx="2183.5" cy="1586" rx="174" ry="174"/>
			<path class="st3" d="M2680,646.3c0,0-94.4-142.4-203.6-143.6l9.7,154.1L2680,646.3z"/>
			<path class="st2" d="M2123.7,1297h755.8l-62.9-510.5c-10.2-83-80.7-145.3-164.3-145.3h-528.6V1297z"/>
			<path class="st3" d="M2563,984.9H2775l-28.1-201.6c-5.8-41.5-41.3-72.4-83.2-72.4h-107.2L2563,984.9z"/>
			<path class="st7" d="M2578.7,969.8h139.6c21.1,0,37.3-18.5,34.5-39.4l-18.5-139.5c-4.9-36.8-34.9-64.3-70.4-64.3h-90.7
				L2578.7,969.8z"/>
			<polygon class="st8" points="1095.6,1450.8 2549.4,1450.8 2484.6,424.4 1181.5,424.4 			"/>
			<polygon class="st9" points="1152.5,1411.8 2496,1411.8 2436.1,463.4 1231.9,463.4 1167.6,1232.2 			"/>
			<path class="st3" d="M2418.3,1297h461.2c40.6,2.7,44.5,22.8,44.5,22.8l39.4,190.7c0,6.5-6,11.8-13.3,11.8h-116
				c-7.3,0-12.6-5.4-15.7-12.2c0,0-17.8-22-29.8-29.9c-30-19.8-62.5-32.7-110.6-32.7c-59.1,0-111.3,18.8-142.8,47.5h-117
				c-14.1,0-25.7-7.4-25.7-16.4v-165.4C2392.6,1304.4,2404.2,1297,2418.3,1297z"/>
			<path class="st8" d="M1048.9,1671.5h146.2c3.4-17.7,9.7-33.3,18.3-47.1c44.2-70.8,147.5-92.5,206.4-99.1
				c25.8-2.9,43.1-2.9,43.1-2.9h-251.2c-65.7,8.9-106.1,44.8-130.1,79.1C1056.3,1637.3,1048.9,1671.5,1048.9,1671.5z"/>
			<path class="st8" d="M389.7,1671.5h146.2c3.8-20.2,11.5-37.6,22-52.7c66.8-96.3,245.8-96.4,245.8-96.4H552.3
				c-55,7.4-92.2,33.7-117,62.2C399.5,1625.8,389.7,1671.5,389.7,1671.5z"/>
			<path class="st10" d="M1081.5,1601.5c0,0,96.2-20.3,131.9,22.9c44.2-70.8,147.5-92.5,206.4-99.1c1.2-1,2.4-1.9,3.5-2.9h-211.7
				C1145.9,1531.3,1105.5,1567.2,1081.5,1601.5z"/>
			<path class="st10" d="M435.4,1584.6C435.4,1584.6,435.4,1584.6,435.4,1584.6c0,0,80.5-1.8,122.5,34.2
				c66.8-96.3,245.8-96.4,245.8-96.4H552.3C497.4,1529.9,460.2,1556.2,435.4,1584.6z"/>
			<path class="st10" d="M2524.9,1550.3H364.7c-6.1,0-11.1-5-11.1-11.1v-77.3c0-6.1,5-11.1,11.1-11.1h2160.2c6.1,0,11.1,5,11.1,11.1
				v77.3C2536,1545.3,2531,1550.3,2524.9,1550.3z"/>
			<path class="st10" d="M2020.2,1696.2h412.7c5.9,0,10.7-4.8,10.7-10.7v-199c0-5.9-4.8-10.7-10.7-10.7h-412.7
				c-5.9,0-10.7,4.8-10.7,10.7v199C2009.5,1691.4,2014.3,1696.2,2020.2,1696.2z"/>
			<path class="st11" d="M1150.8,1411.8h1343.5l-59.9-948.5h-234.7c-73.5,216.7-322,730.3-1033.9,768.8L1150.8,1411.8z"/>
			<g>
				<path class="st9" d="M2865.7,886.1c0,0,18.9,101.5,18,118.1c-0.9,16.6-16.6,24.6-28.4,24.6L2865.7,886.1z"/>
				<path class="st3" d="M2803.1,1028.9h56.4c3.8,0,6.9-3.1,6.9-7V884.6c0-3.8-3.1-7-6.9-7h-56.4c-3.8,0-6.9,3.1-6.9,7v137.3
					C2796.2,1025.7,2799.3,1028.9,2803.1,1028.9z"/>
				<path class="st7" d="M2807.4,1021.5h45.4c3.3,0,5.9-2.7,5.9-5.9V892.1c0-3.3-2.7-5.9-5.9-5.9h-45.4c-3.3,0-5.9,2.7-5.9,5.9
					v123.5C2801.5,1018.8,2804.1,1021.5,2807.4,1021.5z"/>
				<g>
					<path class="st9" d="M2831.3,880.4c1.3,0,2.3-1.2,2.3-2.8V835c0-0.1,0-0.2,0-0.3c0-0.2-2.9-24.5-28.5-23.8
						c-23.4,0.7-33.5,0-33.6,0c-1.3-0.1-2.4,1.1-2.5,2.6s0.9,2.8,2.2,2.9c0.4,0,10.4,0.7,34,0c20.6-0.6,23.4,16.8,23.7,18.8v42.5
						C2829,879.2,2830,880.4,2831.3,880.4z"/>
				</g>
			</g>
			<path class="st3" d="M2582.7,1050.7h42.8c6,0,10.9-4.9,10.9-10.9l0,0c0-6-4.9-10.9-10.9-10.9h-42.8c-6,0-10.9,4.9-10.9,10.9l0,0
				C2571.8,1045.8,2576.7,1050.7,2582.7,1050.7z"/>
			<g>
				<g>
					<g>
						<g>
							<rect x="684.3" y="1263.9" class="st2" width="186.8" height="186.8"/>
							<rect x="606.6" y="1263.9" class="st3" width="85.5" height="186.8"/>
						</g>
					</g>
				</g>
			</g>
		</g>
		<g>
			<g>
				<g>
					<g>
						<path class="st1" d="M276.6,1759.1h97.2c-1-3.5-4.3-9.5-15-11.2c-15-2.4-41-11.2-46.8-30.3c-0.2-0.6-0.4-1.2-0.5-1.9
							c-4.6-20.5-38.1,6.3-38.1,6.3s-0.1,0.8-0.2,2.2C272.4,1731.6,270.5,1755.6,276.6,1759.1z"/>
						<path class="st12" d="M354.8,1210.6c0,0-5.1,63.4-11.1,139.7c-8.1,103.6-17.9,230.8-18.9,254.9c-1.7,41.9-8.4,108.8-8.4,108.8
							s-15.9,15.9-47.7,9.2c0,0-28.4-95.6-36.4-196.7c-0.1-1.7-0.2-3.3-0.4-5c-7.5-102.9-19.2-319.8-19.2-319.8L354.8,1210.6z"/>
						<path class="st1" d="M354.8,1210.6c0,0-5.1,63.4-11.1,139.7l-111.4,176.2c-0.1-1.7-0.2-3.3-0.4-5
							c-7.5-102.9-19.2-319.8-19.2-319.8L354.8,1210.6z"/>
						<path class="st12" d="M331.6,1218.2c0,0-91.6,229.8-151.9,337.7c-60.3,108-79.1,138.1-79.1,138.1s-34.5-13.8-37.7-23.2
							c0,0,23-208.4,63.4-259.3c22.8-28.7,49.6-114.9,50.8-145s8.2-89.8,8.2-89.8L331.6,1218.2z"/>
					</g>
					<path class="st13" d="M211,864.1c0,0,62,30.4,97.8,19.1c0,0-8.8-11.3-24.2-19.7c1.2-7.3,2.2-13.6,2.8-19
						c1.5-12.4,1.5-19.4,1.5-19.4L264.9,806l-22.7-18.3C244,839.2,211,864.1,211,864.1z"/>
					<path class="st9" d="M178.3,1188.5c-0.1,3.8,8,8.2,11.6,9.9c26.5,11.8,51.3,20.1,79.3,22.8c33.1,3.4,72.3-4.1,85.8-3.8
						c1.4,0,2.6-0.6,3.7-1.5c1-0.7,1.6-41.2,1-92.3c0-2.1,0-4.1-0.1-6.2v-0.7c-0.3-19.9-1-40.8-1.9-61.7
						c-1.9-45.9-5.5-90.2-11.5-114.7c-7.3-28.9-23.8-48-38.8-61.9l-12.4-11c-12.4,2.5-25.4,1.8-38.5-4.7c-14.3-7-29.9-14.9-32.4-13
						c-18.7,13.9-31.1,45.4-37.8,85.3c-3.9,23-5.8,48.7-5.6,75.6c0,9.9,0.3,20.1,0.8,30.1c3.3,54.4,0,101.8-1.9,129.1
						C178.9,1177.9,178.5,1184.1,178.3,1188.5z"/>
					<path class="st10" d="M179.4,1169.9c300.5-0.4,55.4-224,55.4-224l-48.7-10.9c-3.9,23-5.8,48.7-5.6,75.6
						c0,9.9,0.3,20.1,0.8,30.1C184.7,1095.3,181.4,1142.6,179.4,1169.9z"/>
					<g>
						<rect x="362.2" y="981.7" class="st2" width="186.8" height="186.8"/>
						<rect x="284.5" y="981.7" class="st3" width="85.5" height="186.8"/>
					</g>
					<path class="st13" d="M390.3,1077.8l11.1-3.6c0,0,7.8-25.8,34.1-14.2c0,0,10.7,5.7,6,12.4c-4.7,6.7-3.8,3.2-10.3,12.8
						c-6.4,9.7-16.6,14.2-24.7,10.6l-9.2,0.3L390.3,1077.8z"/>
					<path class="st9" d="M211,864c0,0-68,108.2,4.4,233.2c22.6,39,193.5,1.9,193.5,1.9s6.7-12-11.2-24.7c0,0-113.8-19.3-127.3-22.5
						c-12-2.9-4-113.4-17.8-145.5C238.9,874.4,211,864,211,864z"/>
					<path class="st14" d="M241.8,807.4c0,0,15.7,29,45.5,37.1c1.5-12.4,1.5-19.4,1.5-19.4L264.9,806L241.8,807.4z"/>
					<path class="st13" d="M299.8,824.3c0,0-59.2,9.8-64.7-27.1c-5.6-36.9-16.9-60.5,20.6-68.4s47,5.2,51.9,17
						C312.4,757.7,315,820.8,299.8,824.3z"/>
					<path class="st1" d="M235.4,799.8c0,0,1.2-49.5,55.1-57.4c36.9-5.4,33.9-32.2,29.6-37.1c0,0-47.7,0.4-76.4,7.6
						C200.4,723.8,229,792.4,235.4,799.8z"/>
				</g>
			</g>
			<path class="st1" d="M62.9,1678.5l2.9-3.7l32.6,18.3c0.3,6.2,0.5,13.4,0.1,19.8c-0.2,4.3,0,8.7,0.8,12.8
				c0.7,3.2,4.1,17,14.2,20.7c11.4,4.1,12.4,12.9-7.2,12.8c-3.5,0-6.9,0-10.2-0.1c-12.2,0-22.6-8.3-25.9-20.1
				c-1.3-4.6-3.7-9.8-7.9-15.3c-5.1-6-11.2-11.3-13.1-17.9C45.8,1694.4,62.9,1678.5,62.9,1678.5z"/>
		</g>
	</g>
</g>
</svg>
