<?xml version="1.0" encoding="utf-8"?>
<!-- Generator: Adobe Illustrator 24.3.0, SVG Export Plug-In . SVG Version: 6.00 Build 0)  -->
<svg version="1.1" xmlns="http://www.w3.org/2000/svg" xmlns:xlink="http://www.w3.org/1999/xlink" x="0px" y="0px"
	 viewBox="0 0 2475 1650" style="enable-background:new 0 0 2475 1650;" xml:space="preserve">
<style type="text/css">
	.st0{fill:url(#SVGID_1_);}
	.st1{fill:url(#SVGID_2_);}
	.st2{fill:url(#SVGID_3_);}
	.st3{fill:url(#SVGID_4_);}
	.st4{fill:url(#SVGID_5_);}
	.st5{fill:url(#SVGID_6_);}
	.st6{fill:url(#SVGID_7_);}
	.st7{fill:url(#SVGID_8_);}
	.st8{fill:url(#SVGID_9_);}
	.st9{fill:url(#SVGID_10_);}
	.st10{fill:url(#SVGID_11_);}
	.st11{fill:url(#SVGID_12_);}
	.st12{fill:url(#SVGID_13_);}
	.st13{fill:url(#SVGID_14_);}
	.st14{fill:url(#SVGID_15_);}
	.st15{fill:url(#SVGID_16_);}
	.st16{fill:url(#SVGID_17_);}
	.st17{fill:url(#SVGID_18_);}
	.st18{fill:url(#SVGID_19_);}
	.st19{fill:url(#SVGID_20_);}
	.st20{fill:url(#SVGID_21_);}
	.st21{fill:url(#SVGID_22_);}
	.st22{fill:url(#SVGID_23_);}
	.st23{opacity:0.8;fill:#FFFFFF;}
	.st24{fill:#FFFFFF;}
</style>
<g id="Background">
</g>
<g id="Illustration">
	<g>
		<linearGradient id="SVGID_1_" gradientUnits="userSpaceOnUse" x1="1217.3109" y1="45.3873" x2="1131.6572" y2="571.546">
			<stop  offset="0" style="stop-color:#09005D"/>
			<stop  offset="1" style="stop-color:#1A0F91"/>
		</linearGradient>
		<rect x="185.48" y="1128.78" class="st0" width="1685.54" height="156.01"/>
		
			<linearGradient id="SVGID_2_" gradientUnits="userSpaceOnUse" x1="3680.4993" y1="1175.358" x2="3747.3899" y2="1436.7261" gradientTransform="matrix(1 0 0 1 -3520 0)">
			<stop  offset="0" style="stop-color:#09005D"/>
			<stop  offset="1" style="stop-color:#1A0F91"/>
		</linearGradient>
		<rect x="148.77" y="1128.78" class="st1" width="48.94" height="192.72"/>
		<linearGradient id="SVGID_3_" gradientUnits="userSpaceOnUse" x1="1422.3214" y1="275.4805" x2="-480.968" y2="1944.033">
			<stop  offset="0" style="stop-color:#FE7062"/>
			<stop  offset="1" style="stop-color:#FF928E"/>
		</linearGradient>
		<path class="st2" d="M1852.66,245.96c0-36.83-38.89-68.55-81.09-68.55H181.83c-42.21,0-72.83,31.72-72.83,68.55v837.81
			c0,36.83,30.63,66.42,72.83,66.42h1589.73c42.21,0,81.09-29.59,81.09-66.42V245.96z"/>
		<linearGradient id="SVGID_4_" gradientUnits="userSpaceOnUse" x1="1654.8639" y1="108.173" x2="-76.5676" y2="1521.4619">
			<stop  offset="0" style="stop-color:#FF928E"/>
			<stop  offset="1" style="stop-color:#FEB3B1"/>
		</linearGradient>
		<path class="st3" d="M1797.6,279.72c0-33.7-29.6-62.54-69.4-62.54H228.5c-39.8,0-79.73,28.85-79.73,62.54v765.83
			c0,33.7,39.93,61.81,79.73,61.81H1728.2c39.8,0,69.4-28.11,69.4-61.81V279.72z"/>
		<linearGradient id="SVGID_5_" gradientUnits="userSpaceOnUse" x1="2406.6724" y1="565.1041" x2="1544.0637" y2="1680.0707">
			<stop  offset="0" style="stop-color:#FE7062"/>
			<stop  offset="1" style="stop-color:#FF928E"/>
		</linearGradient>
		<path class="st4" d="M2404.85,856.35l-104.43-322.76c-2.62-8.09-10.16-13.56-18.67-13.56c-72.88,0-404.62,0-419.92,0v764.76
			h567.74L2404.85,856.35z"/>
		
			<linearGradient id="SVGID_6_" gradientUnits="userSpaceOnUse" x1="5632.5269" y1="1226.7028" x2="6263.4902" y2="1242.5902" gradientTransform="matrix(1 0 0 1 -3520 0)">
			<stop  offset="0" style="stop-color:#E1473D"/>
			<stop  offset="1" style="stop-color:#E9605A"/>
		</linearGradient>
		<path class="st5" d="M2432.72,1167.92c-5.62-3.69-12.45-5.69-20.29-5.54l-437.47,8.43l-1.94,124.3l437.08,10.74
			c16.02,0,29.89-7.73,29.89-18.56v-105.3C2440,1176.69,2438.34,1171.61,2432.72,1167.92z"/>
		<g>
			
				<linearGradient id="SVGID_7_" gradientUnits="userSpaceOnUse" x1="-2682.6802" y1="5217.6919" x2="-1925.6031" y2="4809.3286" gradientTransform="matrix(1 0 0 1 -3520 0)">
				<stop  offset="0" style="stop-color:#09005D"/>
				<stop  offset="1" style="stop-color:#1A0F91"/>
			</linearGradient>
			<path class="st6" d="M2323.33,834.03l-63.12-251.32c-2.2-8.7-10.04-16.79-19.02-16.79h-246.87c-5.3,0-10.38,4.14-14.07,7.94
				c-3.69,3.8-5.69,9.94-5.53,15.24l5.92,200.7c0.28,9.4,7.19,17.53,16.48,19.03l304.07,49.25c6.52,1.05,13.13-1.18,17.59-6.05
				C2323.24,847.16,2324.95,840.43,2323.33,834.03z"/>
			
				<linearGradient id="SVGID_8_" gradientUnits="userSpaceOnUse" x1="-2636.7866" y1="5302.8174" x2="-1879.7056" y2="4894.4517" gradientTransform="matrix(1 0 0 1 -3520 0)">
				<stop  offset="0" style="stop-color:#09005D"/>
				<stop  offset="1" style="stop-color:#1A0F91"/>
			</linearGradient>
			<path class="st7" d="M2310.72,565.83l-3.22,0.53c-5.46,0.91-10.29,4.08-13.29,8.73c-3,4.66-3.89,10.36-2.45,15.71l68.8,255.87
				c2.66,9.89,12.49,16.07,22.56,14.19l21.73-4.07L2310.72,565.83z"/>
		</g>
		
			<linearGradient id="SVGID_9_" gradientUnits="userSpaceOnUse" x1="5751.2153" y1="791.7445" x2="5437.6787" y2="953.5702" gradientTransform="matrix(1 0 0 1 -3520 0)">
			<stop  offset="0" style="stop-color:#E1473D"/>
			<stop  offset="1" style="stop-color:#E9605A"/>
		</linearGradient>
		<path class="st8" d="M2088.21,899.16c0,10.24-8.3,18.55-18.55,18.55h-76.09c-10.24,0-18.55-8.3-18.55-18.55v-8.79
			c0-10.24,8.3-18.55,18.55-18.55h76.09c10.24,0,18.55,8.3,18.55,18.55V899.16z"/>
		
			<linearGradient id="SVGID_10_" gradientUnits="userSpaceOnUse" x1="5927.7842" y1="197.228" x2="5216.1924" y2="564.5015" gradientTransform="matrix(1 0 0 1 -3520 0)">
			<stop  offset="0" style="stop-color:#FF928E"/>
			<stop  offset="1" style="stop-color:#FEB3B1"/>
		</linearGradient>
		<path class="st9" d="M1891.22,295.26c-6.58-0.48-15,1.9-19.84,6.4c-4.84,4.49-9.54,10.9-9.54,17.5v200.87h256.13
			C2117.96,520.03,2104.21,310.8,1891.22,295.26z"/>
		<g>
			<g>
				
					<linearGradient id="SVGID_11_" gradientUnits="userSpaceOnUse" x1="5445.4956" y1="1298.6232" x2="5843.3486" y2="1298.6232" gradientTransform="matrix(1 0 0 1 -3520 0)">
					<stop  offset="0" style="stop-color:#09005D"/>
					<stop  offset="1" style="stop-color:#1A0F91"/>
				</linearGradient>
				<circle class="st10" cx="2124.42" cy="1298.62" r="198.93"/>
				<linearGradient id="SVGID_12_" gradientUnits="userSpaceOnUse" x1="2569.9124" y1="201.039" x2="2253.3162" y2="981.0574">
					<stop  offset="0" style="stop-color:#E1473D"/>
					<stop  offset="1" style="stop-color:#E9605A"/>
				</linearGradient>
				<circle class="st11" cx="2124.42" cy="1298.62" r="161.55"/>
				<linearGradient id="SVGID_13_" gradientUnits="userSpaceOnUse" x1="2055.4407" y1="1254.9458" x2="2274.4167" y2="1254.9458">
					<stop  offset="0" style="stop-color:#FF928E"/>
					<stop  offset="1" style="stop-color:#FEB3B1"/>
				</linearGradient>
				<path class="st12" d="M2260.12,1357.36c-0.4,0-0.8-0.08-1.19-0.24c-1.56-0.66-2.28-2.45-1.62-4.01c7.3-17.25,11-35.58,11-54.48
					c0-77.18-62.79-139.97-139.97-139.97c-23.95,0-47.57,6.15-68.33,17.78c-1.47,0.83-3.34,0.3-4.16-1.17
					c-0.83-1.47-0.3-3.34,1.17-4.16c21.67-12.14,46.33-18.56,71.32-18.56c80.56,0,146.09,65.54,146.09,146.09
					c0,19.72-3.86,38.86-11.48,56.87C2262.44,1356.66,2261.31,1357.36,2260.12,1357.36z"/>
			</g>
			
				<linearGradient id="SVGID_14_" gradientUnits="userSpaceOnUse" x1="5717.4336" y1="1178.9971" x2="5515.2173" y2="1510.3202" gradientTransform="matrix(1 0 0 1 -3520 0)">
				<stop  offset="0" style="stop-color:#09005D"/>
				<stop  offset="1" style="stop-color:#1A0F91"/>
			</linearGradient>
			<circle class="st13" cx="2124.42" cy="1298.62" r="74.09"/>
		</g>
		<g>
			<g>
				
					<linearGradient id="SVGID_15_" gradientUnits="userSpaceOnUse" x1="4219.0361" y1="1298.6232" x2="4616.8892" y2="1298.6232" gradientTransform="matrix(1 0 0 1 -3520 0)">
					<stop  offset="0" style="stop-color:#09005D"/>
					<stop  offset="1" style="stop-color:#1A0F91"/>
				</linearGradient>
				<circle class="st14" cx="897.96" cy="1298.62" r="198.93"/>
				<linearGradient id="SVGID_16_" gradientUnits="userSpaceOnUse" x1="1516.9229" y1="-226.3497" x2="1200.3267" y2="553.6685">
					<stop  offset="0" style="stop-color:#E1473D"/>
					<stop  offset="1" style="stop-color:#E9605A"/>
				</linearGradient>
				<circle class="st15" cx="897.96" cy="1298.62" r="161.55"/>
				<linearGradient id="SVGID_17_" gradientUnits="userSpaceOnUse" x1="828.9822" y1="1254.9458" x2="1047.9568" y2="1254.9458">
					<stop  offset="0" style="stop-color:#FF928E"/>
					<stop  offset="1" style="stop-color:#FEB3B1"/>
				</linearGradient>
				<path class="st16" d="M1033.66,1357.36c-0.4,0-0.8-0.08-1.19-0.24c-1.56-0.66-2.28-2.45-1.63-4.01c7.3-17.25,11-35.58,11-54.48
					c0-77.18-62.79-139.97-139.97-139.97c-23.95,0-47.57,6.15-68.33,17.78c-1.47,0.83-3.34,0.3-4.16-1.17
					c-0.83-1.47-0.3-3.34,1.17-4.16c21.67-12.14,46.33-18.56,71.32-18.56c80.55,0,146.09,65.54,146.09,146.09
					c0,19.72-3.86,38.86-11.48,56.87C1035.98,1356.66,1034.85,1357.36,1033.66,1357.36z"/>
			</g>
			
				<linearGradient id="SVGID_18_" gradientUnits="userSpaceOnUse" x1="4490.9741" y1="1178.9969" x2="4288.7578" y2="1510.3202" gradientTransform="matrix(1 0 0 1 -3520 0)">
				<stop  offset="0" style="stop-color:#09005D"/>
				<stop  offset="1" style="stop-color:#1A0F91"/>
			</linearGradient>
			<circle class="st17" cx="897.96" cy="1298.62" r="74.09"/>
		</g>
		<g>
			<g>
				
					<linearGradient id="SVGID_19_" gradientUnits="userSpaceOnUse" x1="3763.9697" y1="1298.6232" x2="4161.8228" y2="1298.6232" gradientTransform="matrix(1 0 0 1 -3520 0)">
					<stop  offset="0" style="stop-color:#09005D"/>
					<stop  offset="1" style="stop-color:#1A0F91"/>
				</linearGradient>
				<circle class="st18" cx="442.9" cy="1298.62" r="198.93"/>
				<linearGradient id="SVGID_20_" gradientUnits="userSpaceOnUse" x1="1126.2203" y1="-384.9273" x2="809.6242" y2="395.0909">
					<stop  offset="0" style="stop-color:#E1473D"/>
					<stop  offset="1" style="stop-color:#E9605A"/>
				</linearGradient>
				<circle class="st19" cx="442.9" cy="1298.62" r="161.55"/>
				<linearGradient id="SVGID_21_" gradientUnits="userSpaceOnUse" x1="373.9149" y1="1254.9458" x2="592.8908" y2="1254.9458">
					<stop  offset="0" style="stop-color:#FF928E"/>
					<stop  offset="1" style="stop-color:#FEB3B1"/>
				</linearGradient>
				<path class="st20" d="M578.59,1357.36c-0.4,0-0.8-0.08-1.19-0.24c-1.56-0.66-2.28-2.45-1.62-4.01c7.3-17.25,11-35.58,11-54.48
					c0-77.18-62.79-139.97-139.97-139.97c-23.95,0-47.57,6.15-68.33,17.78c-1.47,0.83-3.34,0.3-4.16-1.17
					c-0.83-1.47-0.3-3.34,1.17-4.16c21.67-12.14,46.33-18.56,71.32-18.56c80.56,0,146.09,65.54,146.09,146.09
					c0,19.72-3.86,38.86-11.48,56.87C580.92,1356.66,579.78,1357.36,578.59,1357.36z"/>
			</g>
			
				<linearGradient id="SVGID_22_" gradientUnits="userSpaceOnUse" x1="4035.9077" y1="1178.9969" x2="3833.6917" y2="1510.3202" gradientTransform="matrix(1 0 0 1 -3520 0)">
				<stop  offset="0" style="stop-color:#09005D"/>
				<stop  offset="1" style="stop-color:#1A0F91"/>
			</linearGradient>
			<circle class="st21" cx="442.9" cy="1298.62" r="74.09"/>
		</g>
		<g>
			
				<linearGradient id="SVGID_23_" gradientUnits="userSpaceOnUse" x1="5880.1963" y1="1167.6981" x2="5945.0547" y2="1012.6708" gradientTransform="matrix(1 0 0 1 -3520 0)">
				<stop  offset="0" style="stop-color:#FF928E"/>
				<stop  offset="1" style="stop-color:#FEB3B1"/>
			</linearGradient>
			<path class="st22" d="M2433.88,1136.68c0,10.84-8.79,19.64-19.64,19.64h-52.5c-10.84,0-19.64-8.79-19.64-19.64v-70.85
				c0-10.84,8.79-19.64,19.64-19.64h52.5c10.84,0,19.64,8.79,19.64,19.64V1136.68z"/>
			<path class="st23" d="M2378.82,1046.19v104.01h-13.69c-10.83,0-23.02-10.38-23.02-21.21v-64.6c0-10.83,12.19-18.19,23.02-18.19
				H2378.82z"/>
		</g>
		<path class="st24" d="M1895.49,1021.71c-1.69,0-3.06-1.37-3.06-3.06V565.92c0-1.69,1.37-3.06,3.06-3.06s3.06,1.37,3.06,3.06
			v452.74C1898.55,1020.34,1897.18,1021.71,1895.49,1021.71z"/>
		<path class="st24" d="M2070.97,500c-1.27,0-2.45-0.8-2.89-2.06c-59.1-171.28-181.01-158.86-182.23-158.71
			c-1.67,0.18-3.2-1-3.4-2.68c-0.2-1.68,1-3.2,2.68-3.4c1.31-0.15,32.55-3.6,71.68,14.8c65.1,30.6,99.59,97.37,117.05,148
			c0.55,1.6-0.3,3.34-1.89,3.89C2071.64,499.95,2071.3,500,2070.97,500z"/>
	</g>
</g>
</svg>
