<?xml version="1.0" encoding="utf-8"?>
<!-- Generator: Adobe Illustrator 24.3.0, SVG Export Plug-In . SVG Version: 6.00 Build 0)  -->
<svg version="1.1" id="Layer_1" xmlns="http://www.w3.org/2000/svg" xmlns:xlink="http://www.w3.org/1999/xlink" x="0px" y="0px"
	 viewBox="0 0 5000 3500" style="enable-background:new 0 0 5000 3500;" xml:space="preserve">
<style type="text/css">
	.st0{fill:#3881C3;}
	.st1{fill:#595959;}
	.st2{fill:#FFFFFF;}
	.st3{clip-path:url(#SVGID_2_);}
	.st4{fill:#4B93CF;}
	.st5{fill:#4489C8;}
	.st6{fill:#87BAE4;}
	.st7{fill:#C2DEF3;}
	.st8{fill:#D4E7F7;}
	.st9{fill:#CBE2F5;}
	.st10{fill:#5E9DD4;}
	.st11{fill:#FFD88B;}
	.st12{fill:#103558;}
	.st13{fill:#56A66B;}
	.st14{fill:#4F9963;}
	.st15{fill:#5BB072;}
	.st16{fill:#4CC3D1;}
	.st17{fill:#26BDC5;}
	.st18{fill:#6FCBD8;}
	.st19{fill:#F7A28A;}
	.st20{fill:#3D3D3D;}
	.st21{fill:#EB8A6E;}
	.st22{fill:#99584C;}
	.st23{fill:#895147;}
	.st24{fill:#C27061;}
	.st25{fill:#E78374;}
	.st26{fill:#FFD58F;}
	.st27{fill:#9B4E89;}
	.st28{fill:#F0896C;}
	.st29{fill:#613156;}
	.st30{fill:#225782;}
	.st31{fill:#FFA88F;}
	.st32{fill:#DB7EA2;}
</style>
<g id="Layer_1_1_">
</g>
<g id="Layer_2_1_">
	<path class="st0" d="M4028,3296.2H271.6c-50.5,0-91.5-41-91.5-91.5V873.6c0-50.5,41-91.5,91.5-91.5H4028c50.5,0,91.5,41,91.5,91.5
		v2331.1C4119.5,3255.2,4078.5,3296.2,4028,3296.2z"/>
	<path class="st1" d="M271.6,3279.2c-41.1,0-74.5-33.4-74.5-74.5V873.6c0-41.1,33.4-74.5,74.5-74.5H4028c41.1,0,74.5,33.4,74.5,74.5
		v2331.1c0,41.1-33.4,74.5-74.5,74.5H271.6z"/>
	<g>
		<rect x="313.2" y="895.5" class="st2" width="3677.2" height="2299.2"/>
		<g>
			<g>
				<defs>
					<rect id="SVGID_1_" x="311.2" y="897.5" width="3677.2" height="2299.2"/>
				</defs>
				<clipPath id="SVGID_2_">
					<use xlink:href="#SVGID_1_"  style="overflow:visible;"/>
				</clipPath>
				<g class="st3">
					<rect x="469.8" y="1292.7" class="st4" width="3336.6" height="559.9"/>
					<g>
						<g>
							<path class="st2" d="M3114.2,1632.6h-215.6c-4.3,0-8.1-2.8-9.4-6.9l-41.3-128.6c-1-3-0.4-6.3,1.4-8.8c1.9-2.6,4.8-4,8-4
								h298.2c3.1,0,6.1,1.5,8,4c1.9,2.6,2.4,5.8,1.4,8.8l-41.3,128.6C3122.3,1629.8,3118.5,1632.6,3114.2,1632.6z M2905.8,1612.9
								H3107l35-108.9h-271.1L2905.8,1612.9z"/>
							<path class="st2" d="M3096.5,1687.1h-183.9c-5.5,0-9.9-4.4-9.9-9.9s4.4-9.9,9.9-9.9h176.6c12-0.3,17.5-8.6,18.3-17.1
								c0.8-7.6-2.1-15.4-7.2-17.6l62.1-194.4c1.3-4.1,5.1-6.9,9.4-6.9h64.2c5.5,0,9.9,4.4,9.9,9.9s-4.4,9.9-9.9,9.9h-57
								l-56.9,180.5C3137.3,1656.4,3116.7,1687.1,3096.5,1687.1z"/>
							<circle class="st2" cx="2950.3" cy="1720.1" r="22.7"/>
							<circle class="st2" cx="3064.5" cy="1720.1" r="22.7"/>
							<path class="st2" d="M3011.8,1632.6c-5.5,0-9.9-4.4-9.9-9.9v-128.6c0-5.5,4.4-9.9,9.9-9.9s9.9,4.4,9.9,9.9v128.6
								C3021.6,1628.2,3017.2,1632.6,3011.8,1632.6z"/>
							<path class="st2" d="M2956.7,1632.6c-4.5,0-8.6-3.1-9.6-7.7l-29.2-128.6c-1.2-5.3,2.1-10.6,7.4-11.8
								c5.3-1.2,10.6,2.1,11.8,7.4l29.2,128.6c1.2,5.3-2.1,10.6-7.4,11.8C2958.2,1632.5,2957.5,1632.6,2956.7,1632.6z"/>
							<path class="st2" d="M3064.5,1632.6c-0.5,0-0.9,0-1.4-0.1c-5.4-0.8-9.1-5.8-8.4-11.2l18.7-128.6c0.8-5.4,5.8-9.1,11.2-8.4
								c5.4,0.8,9.1,5.8,8.4,11.2l-18.7,128.6C3073.6,1629.1,3069.3,1632.6,3064.5,1632.6z"/>
							<path class="st2" d="M3134.9,1569.1h-256.6c-5.5,0-9.9-4.4-9.9-9.9s4.4-9.9,9.9-9.9h256.6c5.5,0,9.9,4.4,9.9,9.9
								S3140.3,1569.1,3134.9,1569.1z"/>
						</g>
						<path class="st2" d="M3244.4,1455.8h-57.9v-29.7h57.9c7.5,0,13.5,6,13.5,13.5v2.7C3257.9,1449.7,3251.8,1455.8,3244.4,1455.8z
							"/>
					</g>
					<g>
						<path class="st2" d="M856.8,1618.1l-13,45.1h-42.9l55.9-175.5H911l56.7,175.5h-44.5l-14.1-45.1H856.8z M903.1,1588.4
							l-11.4-37.2c-3.3-10.4-6.5-23.4-9.2-33.9H882c-2.7,10.4-5.4,23.7-8.4,33.9l-10.8,37.2H903.1z"/>
						<path class="st2" d="M992.1,1490c15.2-2.3,35-3.6,55.9-3.6c34.7,0,57.2,6,74.9,18.8c19,13.5,30.9,35.2,30.9,66.1
							c0,33.6-12.8,56.8-30.4,71.1c-19.3,15.4-48.5,22.6-84.3,22.6c-21.4,0-36.6-1.3-46.9-2.6V1490z M1033.6,1633.2
							c3.5,0.8,9.2,0.8,14.4,0.8c37.4,0.3,61.8-19.5,61.8-61.5c0.3-36.5-22-55.7-57.5-55.7c-9.2,0-15.2,0.8-18.7,1.6V1633.2z"/>
						<path class="st2" d="M1180.9,1490c15.2-2.3,35-3.6,55.9-3.6c34.7,0,57.2,6,74.9,18.8c19,13.5,30.9,35.2,30.9,66.1
							c0,33.6-12.8,56.8-30.4,71.1c-19.3,15.4-48.5,22.6-84.3,22.6c-21.4,0-36.6-1.3-46.9-2.6V1490z M1222.4,1633.2
							c3.5,0.8,9.2,0.8,14.4,0.8c37.4,0.3,61.8-19.5,61.8-61.5c0.3-36.5-22-55.7-57.5-55.7c-9.2,0-15.2,0.8-18.7,1.6L1222.4,1633.2
							L1222.4,1633.2z"/>
						<path class="st2" d="M1503.9,1520.9h-49.1v-33.3h140.5v33.3h-49.9v142.2h-41.5L1503.9,1520.9L1503.9,1520.9z"/>
						<path class="st2" d="M1776.7,1573.5c0,57.5-36.3,92.4-89.8,92.4c-54.2,0-86-39.3-86-89.3c0-52.6,35-91.9,89-91.9
							C1746.1,1484.7,1776.7,1525.1,1776.7,1573.5z M1644.6,1575.9c0,34.4,16.8,58.6,44.5,58.6c27.9,0,43.9-25.5,43.9-59.6
							c0-31.5-15.7-58.6-44.2-58.6C1660.9,1516.3,1644.6,1541.8,1644.6,1575.9z"/>
						<path class="st2" d="M1992.9,1658.2c-7.6,3.6-24.7,7.5-46.9,7.5c-63.2,0-95.7-37.8-95.7-87.8c0-59.9,44.5-93.2,99.8-93.2
							c21.4,0,37.7,4.2,45,7.8l-8.4,31.5c-8.4-3.4-20.1-6.5-34.7-6.5c-32.8,0-58.3,19-58.3,58.1c0,35.2,21.7,57.3,58.6,57.3
							c12.5,0,26.3-2.6,34.4-5.7L1992.9,1658.2z"/>
						<path class="st2" d="M2065.3,1618.1l-13,45.1h-42.9l55.9-175.5h54.2l56.7,175.5h-44.5l-14.1-45.1H2065.3z M2111.7,1588.4
							l-11.4-37.2c-3.3-10.4-6.5-23.4-9.2-33.9h-0.5c-2.7,10.4-5.4,23.7-8.4,33.9l-10.8,37.2H2111.7z"/>
						<path class="st2" d="M2200.6,1490c13.3-2.1,33.1-3.6,55.1-3.6c27.1,0,46.1,3.9,59.1,13.8c10.8,8.3,16.8,20.6,16.8,36.7
							c0,22.4-16.5,37.8-32.3,43.2v0.8c12.8,4.9,19.8,16.7,24.4,32.8c5.7,19.8,11.4,42.7,14.9,49.5h-42.3c-3-4.9-7.3-19.3-12.8-40.9
							c-4.9-21.9-12.8-27.9-29.6-28.1h-12.5v69h-41L2200.6,1490L2200.6,1490z M2241.6,1565.5h16.3c20.6,0,32.8-9.9,32.8-25.3
							c0-16.1-11.4-24.2-30.4-24.5c-10,0-15.7,0.8-18.7,1.3L2241.6,1565.5L2241.6,1565.5z"/>
						<path class="st2" d="M2361.5,1490c15.2-2.3,35-3.6,55.9-3.6c34.7,0,57.2,6,74.9,18.8c19,13.5,30.9,35.2,30.9,66.1
							c0,33.6-12.8,56.8-30.4,71.1c-19.3,15.4-48.5,22.6-84.3,22.6c-21.4,0-36.6-1.3-46.9-2.6L2361.5,1490L2361.5,1490z
							 M2402.9,1633.2c3.5,0.8,9.2,0.8,14.4,0.8c37.4,0.3,61.8-19.5,61.8-61.5c0.3-36.5-22-55.7-57.5-55.7c-9.2,0-15.2,0.8-18.7,1.6
							V1633.2z"/>
					</g>
					<g>
						<polygon class="st5" points="3875.6,2734.1 442.1,2729.6 442.1,2691 3875.6,2695.5 						"/>
						<polygon class="st5" points="3875.6,3489.6 442.1,3485.1 442.1,3446.4 3875.6,3451 						"/>
						<g>
							<path class="st5" d="M2076.5,1202.2l-1508.3-8.8c-54.3-0.3-98.5-45.6-98.5-101c0-55.4,44.2-100.1,98.5-99.7l1508.3,9.9
								c53.7,0.4,97.4,45.4,97.4,100.4C2173.9,1158,2130.2,1202.5,2076.5,1202.2z M568.3,999.3c-50.7-0.3-91.9,41.4-91.9,93.1
								c0,51.7,41.2,94,91.9,94.3l1508.3,8.9c50.1,0.3,90.9-41.2,90.9-92.6s-40.8-93.4-90.9-93.7L568.3,999.3z"/>
							<path class="st5" d="M2076.5,1005.9l-156.9-1v193.1l156.9,0.9c52,0.3,94.1-42.6,94.1-95.9S2128.5,1006.2,2076.5,1005.9z"/>
							<g>
								<path class="st2" d="M2018.4,1130c-13-0.1-25.3-5.4-34.5-14.9c-19-19.6-19-51.3,0-70.7c9.2-9.4,21.5-14.5,34.5-14.4
									c13,0.1,25.3,5.4,34.5,14.9l0,0c19,19.6,19,51.3,0,70.7C2043.7,1125,2031.4,1130.1,2018.4,1130z M2018.4,1042.1
									c-9.9-0.1-19.2,3.8-26.2,10.9c-14.4,14.7-14.4,38.8,0,53.6c7,7.2,16.3,11.2,26.2,11.3s19.2-3.8,26.2-10.9
									c14.4-14.7,14.4-38.7,0-53.6C2037.6,1046.2,2028.3,1042.2,2018.4,1042.1z"/>
								<polygon class="st2" points="2081.6,1154 2044.6,1115.5 2052.9,1107.1 2089.9,1145.5 								"/>
								<path class="st2" d="M2098,1162.5L2098,1162.5c-4.1,4.2-10.8,4.2-15-0.1l-31-31.9l15-15.3l31,31.9
									C2102.2,1151.4,2102.2,1158.3,2098,1162.5z"/>
							</g>
						</g>
						<g>
							<polygon class="st6" points="1077.8,2627.9 517.1,2625.2 517.1,2052.6 1077.8,2055.8 							"/>
							<g>
								<path class="st5" d="M951.1,2486.1l-12.5-3.8c0.3-0.9,21.9-95.7,23.6-131.8c2.1-43.4-11.2-81.9-38.5-111.2
									c-31.1-33.6-78.6-53-130.1-53.3c-50.4-0.3-94.3,16.8-123.5,48.2c-26.9,28.8-39.8,68.4-37.2,114.5
									c2,36.4,20.2,128,20.4,128.9l-12.8,2.6c-0.8-3.8-18.6-93.5-20.6-130.8c-2.7-49.8,11.4-92.8,40.8-124.4
									c31.7-34.1,79-52.6,133-52.3c55.1,0.3,106,21.2,139.5,57.5c29.7,32.1,44.3,73.9,42,121.1
									C973.4,2388.9,952.2,2482.3,951.1,2486.1z"/>
								<g>
									<g>
										<path class="st5" d="M641.4,2418.5l17,92.7c1.8,10,10.7,16.9,20.4,16.3l-24-131.6C645.5,2398.7,639.5,2408.4,641.4,2418.5
											z"/>
										<path class="st5" d="M681.1,2527.2l36.6-6.8l-24.2-131.8l-36.6,6.8c-0.7,0.1-1.4,0.3-2,0.5l24,131.6
											C679.6,2527.4,680.4,2527.3,681.1,2527.2z"/>
									</g>
									<g>
										<path class="st7" d="M727.5,2533.3L727.5,2533.3c-11.2,2.1-22-5.5-24.1-16.9l-21.9-119.1c-2.1-11.4,5.3-22.4,16.5-24.5
											l0,0c11.2-2.1,22,5.5,24.1,16.9l21.9,119C746,2520.3,738.7,2531.2,727.5,2533.3z"/>
									</g>
								</g>
								<g>
									<g>
										<path class="st5" d="M951.7,2421.4l-19.3,92c-2.1,9.9-11.1,16.5-20.8,15.5l27.2-130.6
											C948.1,2401.5,953.8,2411.4,951.7,2421.4z"/>
										<path class="st5" d="M909.3,2528.6l-36.4-8.1l27.4-130.8l36.4,8.1c0.7,0.2,1.4,0.4,2,0.6l-27.2,130.6
											C910.8,2528.8,910.1,2528.7,909.3,2528.6z"/>
									</g>
									<g>
										<path class="st7" d="M862.9,2533.1L862.9,2533.1c11.1,2.5,22.1-4.7,24.4-16.1l24.8-118.2c2.4-11.3-4.7-22.6-15.8-25l0,0
											c-11.1-2.5-22.1,4.7-24.4,16L847,2508C844.6,2519.4,851.7,2530.6,862.9,2533.1z"/>
									</g>
								</g>
							</g>
						</g>
						<g>
							<polygon class="st6" points="1755,2630.9 1195.7,2628.3 1195.7,2056.4 1755,2059.7 							"/>
						</g>
						<g>
							<polygon class="st6" points="1752.9,3402.1 1192.2,3401.1 1192.2,2828.5 1752.9,2830.1 							"/>
						</g>
						<g>
							<polygon class="st6" points="3111.5,2635.8 2550.8,2634 2550.8,2061.4 3111.5,2063.8 							"/>
							<g>
								<g>
									<path class="st8" d="M2869.1,2151.4c-2.6-7.5-4.1-15.3-4.9-23.3l-6.3,0c-0.2,7.2-1.7,14.7-2.8,18.7
										c-4.4,16.4-16.8,28.8-31.4,29.6c-14.6-0.9-27-13.3-31.4-29.8c-1.1-4-2.6-11.6-2.8-18.8l-6.3,0c-0.8,8-2.3,15.8-4.9,23.3
										c-6.3,18.4-17.1,33.8-29.9,46.5l10,93.9l62.6,0.2l5.5,0l62.6,0.2l10-93.8C2886.3,2185.4,2875.5,2169.9,2869.1,2151.4z"/>
									<path class="st8" d="M2969.4,2538c-27.8,28.5-256.7,30.6-291.4-1c15.6-88.8,36.1-174.6,80.4-245.5l130.7,0.5
										C2928.7,2353.5,2951.3,2442.2,2969.4,2538z"/>
								</g>
								<path class="st5" d="M2835.1,2314.3c-52.9-0.2-78-22.9-79-23.8c-0.8-0.7-0.9-2-0.1-2.8c0.7-0.8,2-0.9,2.7-0.1
									c0.2,0.2,25.1,22.6,76.4,22.8c0,0,0,0,0.1,0c45.7,0.2,52-18.6,52.1-18.8c0.3-1,1.4-1.6,2.4-1.3c1,0.3,1.6,1.4,1.3,2.5
									C2890.7,2293.5,2884.2,2314.4,2835.1,2314.3C2835.2,2314.3,2835.1,2314.3,2835.1,2314.3z"/>
								<path class="st5" d="M2829.7,2350.3c-1.2,0-2.7-0.5-4.2-2.4c-9.6-12,14.3-34.5,17-37l4.3-3.9l-1.1,5.8
									c-1.5,8.3-7,35.4-14.9,37.5C2830.5,2350.2,2830.2,2350.3,2829.7,2350.3z M2840.7,2318.3c-7.4,7.9-17.2,20.8-12.1,27.1
									c0.4,0.5,0.9,1.1,1.4,0.9C2833.2,2345.4,2837.7,2332.1,2840.7,2318.3z"/>
								<path class="st5" d="M2841.8,2317.1l0.1-4.9c0-1.2,0.8-29.2,11.6-38.6c2.9-2.5,6.2-3.5,9.9-3c4.2,0.6,5.8,2.8,6.4,4.6
									c3.3,10.3-19.8,33.9-24.5,38.5L2841.8,2317.1z M2861.6,2274.5c-2.1,0-3.9,0.7-5.6,2.2c-6.9,6-9.2,22.1-9.9,30.5
									c9.8-10.3,21.7-25.3,19.9-30.7c-0.1-0.4-0.5-1.5-3.2-1.9C2862.4,2274.5,2862,2274.5,2861.6,2274.5z"/>
								<path class="st5" d="M2880.9,2346.2c-0.7,0-1.4-0.4-1.8-1.1c-11.5-24.1-35.5-30.8-35.8-30.9c-1-0.3-1.7-1.4-1.4-2.4
									c0.3-1.1,1.3-1.7,2.4-1.4c1.1,0.3,26,7.3,38.3,33c0.5,1,0.1,2.2-0.9,2.7C2881.5,2346.2,2881.2,2346.2,2880.9,2346.2z"/>
							</g>
						</g>
						<g>
							<polygon class="st6" points="1077.3,4171.7 518.1,4171.5 518.1,3599.6 1077.3,3600.4 							"/>
							<g>
								<g>
									<path class="st8" d="M850.1,3752.3c-2.9-8.6-4.7-17.6-5.6-26.7l-7.2,0c-0.5,72.2-77.9,72-78.4-0.1l-7.2,0
										c-2.4,30.6-19.1,59.7-39.9,80.2l11.5,107.6c38.9,0,110.8,0.1,149.7,0.1l11.5-107.6C869.7,3791.2,857.3,3773.4,850.1,3752.3
										z"/>
									<path class="st8" d="M914.3,3998.8c-11.8-31.6-25.3-60.4-41.4-85.3l-149.8-0.1c-16.6,26.7-30.3,55.3-41.8,85.2
										C714.8,4033.5,884.3,4039.4,914.3,3998.8z"/>
								</g>
								<path class="st5" d="M811.1,3939.2c-59.5,0.6-102.4-30-87.6-30.4c0.1,0.2,29,25.9,87.6,25.9c57.7-0.5,55.4-21.9,62.4-23.3
									C878.2,3915.8,868.1,3938.2,811.1,3939.2z"/>
								<path class="st5" d="M804.9,3980.5c-23.6-10.7,14.6-45.6,19.5-49.8C821.7,3942.6,817.7,3977.5,804.9,3980.5z M817.5,3943.8
									c-8.5,9.3-21.7,26.1-12.3,32.2C808.9,3974.9,814,3959.6,817.5,3943.8z"/>
								<path class="st5" d="M818.7,3942.4c0.3-4.3-0.3-55.7,24.7-53.4C868.3,3896.6,824.3,3935.9,818.7,3942.4z M841.4,3893.5
									c-14.6,1.7-16.2,26.5-17.7,37.5C834.2,3918.8,856.8,3895.3,841.4,3893.5z"/>
								<path class="st5" d="M863.5,3975.7c-19.6-33.3-43.5-33.6-44.6-39.4c3.5-4.6,30.7,6.1,46.6,36.1
									C866.3,3973.9,865.1,3975.7,863.5,3975.7z"/>
							</g>
						</g>
						<g>
							<polygon class="st6" points="3097.3,4171.7 2538.1,4171.5 2538.1,3599.6 3097.3,3600.4 							"/>
							<path class="st5" d="M2905.8,3707.5h-177.1c-20.3,84.8,19.4,237.9,33.2,409.9h46c0,0-4.5-311.1,9.7-311.1
								c14.2,0,5.6,311.1,5.6,311.1h46C2882.6,3965.8,2929.4,3817.5,2905.8,3707.5z"/>
						</g>
						<g>
							<polygon class="st6" points="3769.9,4171.7 3210.7,4171.5 3210.7,3599.6 3769.9,3600.4 							"/>
							<path class="st5" d="M3358.2,4078.6h99.6l85.7-79.1l10.8,75h19l17.9-84.8l-14.6-52.4l2.9-244.7h-133.3l15.7,259.6
								c0,0-17.7,61.6-36.8,72.2c-19,10.6-42,19.8-54.4,30C3358.2,4064.7,3358.2,4078.6,3358.2,4078.6z"/>
						</g>
						<g>
							<polygon class="st6" points="3788.7,2630.5 3229.4,2628.7 3229.4,2056.8 3788.7,2059.2 							"/>
							<g>
								<path class="st9" d="M3444.7,2205.8c0,0,39.3,13.2,96.9-1.6c36.9,45.6-28.1,67.3-68.7,57.4
									C3432.4,2251.8,3444.7,2205.8,3444.7,2205.8z"/>
								<path class="st5" d="M3541.6,2204.2c-3.2,12.4-9.6,23.3-21.4,30.2c-27.6,16.3-63.3-1.2-75.6-28.6
									c-21.9,2.8-41,7.1-54.7,12.2v314.5l217.2,0.7v-314.4C3587.7,2211.3,3565.1,2206.6,3541.6,2204.2z"/>
								<polygon class="st5" points="3389.9,2218 3296.4,2291.7 3357.9,2374.1 3449.5,2304.7 								"/>
								<polygon class="st5" points="3607.8,2218.9 3701.4,2293.2 3639.9,2375.1 3548.3,2305 								"/>
							</g>
						</g>
						<g>
							<polygon class="st6" points="1076.4,3401.8 518.5,3400 518.5,2828.8 1076.4,2831.2 							"/>
							<g>
								<g>
									<path class="st5" d="M589.8,3251.2l-4.3,0v18.7c0,0,233.8,17,325.8,1.1c92-15.9,98.3-46.8,98.3-46.8V3205l-3.2,0
										L589.8,3251.2z"/>
									<path class="st8" d="M1005.9,3214.1c-24.1,31.9-97.1,41.4-188.6,42.6c-37.7,0.6-78.4-0.3-120.2-1.7
										c-35.5-1.2-71.8-2.7-107.4-3.8c-3.5-26.7,5.8-76.4,13.1-103.8c2.4-8.9,4.5-15.4,5.9-18.1l1.4-0.5
										c12.2,16.9,42.1,27.1,59.8,26.8c29-0.6,61.6-20.8,52.2-45.2c-1.5-3.4-2.7-6.3-3.5-9.1c-7.4-24.3,12.9-24.4,43.4-5.4
										c54,34.4,102.1,46.8,140.9,53.1c8,1.3,15.6,2.3,22.9,3.3C980.2,3159.4,1010.8,3159.7,1005.9,3214.1z"/>
									<path class="st5" d="M1002.8,3214.1c-24.1,31.9-97.1,41.4-188.6,42.6c-2.7-13.4-4.9-48.7,42.1-57.4
										c35.7-6.5,56-29.9,66.3-47C977.1,3159.3,1007.7,3159.7,1002.8,3214.1z"/>
									<path class="st5" d="M694.1,3255c-35.5-1.2-71.8-2.7-107.4-3.8c-3.5-26.7,5.8-76.5,13.1-103.8
										C630.1,3158.2,683.9,3186.7,694.1,3255z"/>
									<path class="st5" d="M902.9,3149.1c-6.9,11-17.6,11.3-27.9,11.3c-92.4-6.5-139.3-43.3-156.4-59
										c-7.4-24.3,12.9-24.4,43.4-5.4C816.1,3130.4,864.1,3142.8,902.9,3149.1z"/>
								</g>
								<path class="st8" d="M793.1,3260.2c-47.4-0.2-94.9-2.8-133.7-5c-34.1-1.9-61-3.5-72.1-2.1l-1.8,0.2l-0.4-3.6l1.8-0.2
									c11.3-1.4,38.4,0.2,72.7,2.1c108.6,6.1,310.5,17.5,345.2-47.4l0.9-1.6l3.1,1.8l-0.9,1.6
									C984,3250.6,888.6,3260.5,793.1,3260.2z"/>
							</g>
						</g>
						<g>
							<polygon class="st6" points="2432.2,2634 1874.3,2631.3 1874.3,2060.1 2432.2,2063.4 							"/>
							<g>
								<polygon class="st5" points="2217.2,2535.8 2099.6,2535.2 2099.6,2169.5 2217.2,2170.2 								"/>
								<g>
									<path class="st9" d="M2257.3,2347.7c0,58.7-46.5,106.1-103.9,105.8c-57.4-0.3-103.9-48.2-103.9-106.9
										c0-58.7,46.5-106.1,103.9-105.8C2210.8,2241.2,2257.3,2289,2257.3,2347.7z"/>
									<path class="st5" d="M2237,2347.6c0,47.3-37.4,85.4-83.6,85.2c-46.2-0.2-83.7-38.8-83.7-86.1s37.5-85.4,83.7-85.2
										C2199.6,2261.8,2237,2300.4,2237,2347.6z"/>
									<polygon class="st9" points="2068.7,2299.6 2055.4,2290 2071.2,2267 2084.5,2276.7 									"/>
									
										<rect x="2042.1" y="2347.2" transform="matrix(0.9914 -0.1308 0.1308 0.9914 -291.2456 288.4601)" class="st9" width="16.3" height="28.2"/>
									<polygon class="st9" points="2237.4,2300 2250.9,2290.7 2235.3,2267.3 2221.9,2276.6 									"/>
									<polygon class="st9" points="2246.3,2376.5 2262.4,2378.8 2266,2350.9 2249.9,2348.6 									"/>
									<path class="st9" d="M2153.6,2351.8l-40.8-21.8c-1.9-1-2.7-3.4-1.7-5.4c1-2,3.3-2.7,5.3-1.7l36.8,19.6l51.9-33.8
										c1.8-1.2,4.2-0.6,5.4,1.2c1.2,1.9,0.6,4.3-1.2,5.5L2153.6,2351.8z"/>
								</g>
							</g>
						</g>
						<g>
							<polygon class="st6" points="2427.2,3401.7 1868,3400.7 1868,2828.8 2427.2,2830.4 							"/>
							<g>
								<path class="st5" d="M1946.6,3203.6c19.5,6.1,47.4,11,79.3,14.5c52.4,5.8,115.7,7.9,169.9,5.7c53.6-2.1,98.3-8.4,115.1-19.4
									c0,0,35.8-216.8-174.9-222.1c-2.4-0.1-4.8-0.1-7.2-0.1C1910,2981.6,1946.6,3203.6,1946.6,3203.6z"/>
								<path class="st9" d="M2025.9,3218.1c52.4,5.8,115.7,7.9,169.9,5.7c29.7-196.9-55.2-239.4-59.8-241.5
									c-0.1-0.1-0.2-0.1-0.2-0.1l-7,0C2017.8,3045.2,2023.2,3186.7,2025.9,3218.1z"/>
								<path class="st10" d="M2288.1,3212.6c0,0-59.6,101.1-336.1,77.7c-118.4-10-5.4-86.7-5.4-86.7
									C2021.1,3221.9,2164.6,3230.6,2288.1,3212.6z"/>
							</g>
						</g>
						<g>
							<polygon class="st6" points="2427.2,4165.3 1868,4164.3 1868,3592.4 2427.2,3594 							"/>
							<path class="st5" d="M2050.6,3767.2l197.8,5.4l24.9,121l91.4,83.7c-23,34.3-361.9,36.9-421.4,0l78.2-81.2L2050.6,3767.2z"/>
							<polygon class="st8" points="2027.4,3870.3 2021.5,3896.1 2273.2,3893.6 2268.5,3870.3 							"/>
						</g>
						<g>
							<polygon class="st6" points="3101.6,3401.4 2543.7,3400.4 2543.7,2829.2 3101.6,2830.8 							"/>
							<g>
								<g>
									<path class="st5" d="M2754.3,3030.9l127.4,0.3c72.5,0.2,133,59.9,132.6,134.1c-0.2,29.6-9.4,55.8-31.7,69.6l-335.9-0.7
										c-21.2-10.1-29.4-45.3-23.7-87.5C2631.8,3080,2688.4,3030.7,2754.3,3030.9z"/>
									<path class="st5" d="M2773.5,3034.4l0.1-1.1c2.1-25.1,23.3-44.7,48.3-44.7c25,0.1,46.2,19.8,48.3,44.9l0.1,1.1l16.4,0
										l-0.2-2.6c-2.8-33.7-31.2-60.2-64.6-60.3c-33.4-0.1-61.9,26.3-64.6,60l-0.2,2.6L2773.5,3034.4z"/>
								</g>
								<polygon class="st8" points="2806.5,3234.5 2775,3234.4 2775,3108.3 2806.5,3108.4 								"/>
								<polygon class="st8" points="2868.9,3234.6 2837.4,3234.6 2837.4,3108.4 2868.9,3108.5 								"/>
							</g>
						</g>
						<g>
							<polygon class="st6" points="3778.1,3401.7 3217.4,3401.5 3217.4,2828.9 3778.1,2829.6 							"/>
							<g>
								<path class="st5" d="M3677,3254.4c-49.2,42.3-304.4,42.2-346.2-0.2c-7.7-81.5,0.6-153.6,23.2-217.3
									c100.2-20.9,200.1-19.9,299.9,0.3C3677.1,3095.2,3687.2,3189.4,3677,3254.4z"/>
								<path class="st10" d="M3354,3036.8c0,0,19.8,122.1,158.8,121.4c138.9-0.8,141.1-121.1,141.1-121.1
									S3511.3,3001.4,3354,3036.8z"/>
								<path class="st9" d="M3503.9,3201.5L3503.9,3201.5c-7.5,0-13.6-6.2-13.6-13.9v-50.2c0-7.6,6.1-13.8,13.6-13.8l0,0
									c7.5,0,13.6,6.2,13.6,13.9v50.2C3517.4,3195.3,3511.3,3201.5,3503.9,3201.5z"/>
							</g>
						</g>
						<polygon class="st5" points="3875.6,4260.7 442.1,4256.3 442.1,4217.6 3875.6,4222.2 						"/>
						<g>
							<polygon class="st6" points="1745.7,4171.3 1187.8,4171.2 1187.8,3600 1745.7,3600.7 							"/>
							<g>
								<g>
									<path class="st5" d="M1429.8,3745.9c0,0,35.8,12,88.2-1.7C1567,3808.6,1404.8,3825,1429.8,3745.9z"/>
									<path class="st8" d="M1518.1,3744.2c-9.1,45.6-73,40.8-88.2,1.7c-19.9,2.6-37.3,6.6-49.8,11.3v286.6l197.6,0.1v-286.5
										C1560,3750.5,1539.4,3746.3,1518.1,3744.2z"/>
									<polygon class="st8" points="1380,3757.2 1294.9,3824.5 1350.9,3899.5 1434.3,3836 									"/>
									<polygon class="st8" points="1578.3,3757.4 1663.5,3824.9 1607.6,3899.7 1524.2,3836.1 									"/>
								</g>
								<rect x="1489.3" y="3840.4" class="st5" width="57.8" height="59.2"/>
							</g>
						</g>
					</g>
				</g>
			</g>
		</g>
	</g>
	<g>
		<path class="st11" d="M1470.1,2147.1c0,0-42.7-11.9-90.2,19.4c-40.2,26.5-92.4,131.7-110.3,159.9
			c-17.9,28.3-72.3,167.2-72.3,167.2l35.8,22.3l102.1-151.8l92.1-106.4C1427.3,2257.8,1542.5,2182.6,1470.1,2147.1z"/>
		<g>
			<g>
				<path class="st12" d="M1172.4,2596.8c-0.2,0-0.5-0.1-0.7-0.3c-0.4-0.4-0.4-1-0.1-1.4c0.4-0.4,36.8-40.3,34.6-62.5
					c-0.4-4.3-2.3-7.7-5.6-10c-22.6-16.4-78.2,43.9-78.8,44.5c-0.4,0.4-1,0.4-1.4,0.1c-0.4-0.4-0.4-1-0.1-1.4
					c2.3-2.6,57.3-62.1,81.4-44.7c3.8,2.7,5.9,6.6,6.4,11.4c2.3,23.1-33.6,62.4-35.1,64C1173,2596.7,1172.7,2596.8,1172.4,2596.8z"
					/>
				<path class="st12" d="M1152.9,2583.9c-0.3,0-0.6-0.1-0.8-0.4c-0.3-0.4-0.2-1,0.2-1.4c0.5-0.4,46.9-34.7,46.9-54.9
					c0-3.7-1.6-6.6-4.7-8.9c-22.7-16.5-91.6,35.4-92.3,35.9c-0.4,0.3-1,0.2-1.4-0.2c-0.3-0.4-0.2-1,0.2-1.4
					c2.9-2.2,70.7-53.3,94.6-35.9c3.7,2.6,5.5,6.2,5.5,10.4c0.1,21.2-45.7,55.1-47.7,56.5
					C1153.3,2583.8,1153.1,2583.9,1152.9,2583.9z"/>
				<g>
					<polygon class="st13" points="1059.8,2523.2 865.6,2764.5 935.8,2808.7 1096.7,2546.5 					"/>
					<polygon class="st14" points="1105.3,2551.9 935.5,2808.5 1050.7,2881.2 1198.8,2610.9 					"/>
					<polygon class="st15" points="1087,2540.4 928.8,2751.8 935.8,2808.7 1105.6,2552.1 					"/>
				</g>
				<polygon class="st13" points="928.8,2751.8 865.3,2764.2 935.5,2808.5 				"/>
			</g>
			<g>
				<g>
					<polygon class="st16" points="1133.3,2574.2 972.5,2846.4 1049.9,2880.8 1174,2592.3 					"/>
					<polygon class="st17" points="1183.5,2596.6 1049.5,2880.6 1176.5,2937.2 1286.6,2642.5 					"/>
					<polygon class="st18" points="1163.3,2587.6 1034.5,2824.3 1049.9,2880.8 1183.8,2596.7 					"/>
				</g>
				<polygon class="st16" points="1034.5,2824.3 972.1,2846.2 1049.5,2880.6 				"/>
			</g>
		</g>
		<path class="st19" d="M1234.5,2513.6l-12.2,22.6c0,0,11.1,10.6,6.6,17.9c-13.2,15.4-47,10.8-54.2,4.9c-7.1-5.9-14.2-21.6-9.1-33.7
			c5.1-12,31.7-31.6,31.7-31.6S1230.5,2500.2,1234.5,2513.6z"/>
		<path class="st19" d="M1193.4,2500.8l21.8-52c7.1,14.5,38.2,26.1,46.1,25.1l-30.4,46.2L1193.4,2500.8z"/>
		<path class="st20" d="M1449.5,2409.8c-10.1,8.3-56.7,56.5-74.4,149.2c-5.3,27.9-35.3,558.8-44.9,687.8h57.6
			c59.6-275.2,112.6-486.1,179.2-792.8C1578.5,2384.3,1498.4,2346.3,1449.5,2409.8z"/>
		<path class="st20" d="M1498.8,2434.2c-8.2,15.8,9.5,111.6,9.5,173.2c0,74.5-1.6,667.3-1.6,667.3h48.9
			c32.5-215.7,83.9-483,95.1-661.6c6.4-101.3-1.8-117.2-29.8-220.3C1600.3,2333.3,1527.8,2371.7,1498.8,2434.2z"/>
		<polygon class="st19" points="1550,2196.8 1453.2,2199.8 1469.6,2059.7 1547.1,2057.3 		"/>
		<g>
			<path class="st21" d="M1969.4,2213.8c9.7-16.2-3.7-40.1-4.7-41.9l-47,19.4c-7.5,4.5,0.5,25.5,12.9,31.3
				C1930.6,2222.6,1959.4,2228.3,1969.4,2213.8z"/>
			<path class="st21" d="M1965.9,2188.5c19.3-11.4,33-23.1,31-26.7c-2-3.5-19.1,2.5-38.6,13.5
				C1944.7,2183.1,1955.9,2193,1965.9,2188.5z"/>
		</g>
		<path class="st2" d="M1331.8,3225.4c5.2-6.7,39.9,13.5,59.9,0c0,0,91.3,23.9,56.5,49.3c-46.6,0-120,0-120,0
			C1320.7,3266.9,1318.9,3252,1331.8,3225.4z"/>
		<path class="st2" d="M1506.1,3225.4c5.2-6.7,39.9,13.5,59.9,0c0,0,91.3,23.9,56.5,49.3c-46.6,0-120,0-120,0
			C1495,3266.9,1493.3,3252,1506.1,3225.4z"/>
		<g>
			<g>
				<path class="st19" d="M1636.3,1991.1c-0.7,65.6-25.3,98.4-73,97c-47.7-1.4-101.1-51.9-99.6-102.1s41.4-89.9,89-88.5
					S1636.8,1940.8,1636.3,1991.1z"/>
			</g>
			<path class="st22" d="M1541.9,1866.3c0,0,94.9,7.1,101,79.2c9,63.4-37.2,15.8-57.6,57.7c-23.4,48-1.7,84.1,26.9,94.4
				c-26.5,35.1-172.8,30.1-208.9-33.5C1379.3,1984.8,1418.8,1867.6,1541.9,1866.3z"/>
			<path class="st19" d="M1605.1,2001.1c0.5,9.8-6.9,18.1-16.7,18.7c-9.8,0.5-18.1-6.9-18.7-16.7c-0.5-9.8,6.9-18.1,16.7-18.7
				C1596.2,1983.9,1604.6,1991.3,1605.1,2001.1z"/>
		</g>
		<path class="st21" d="M1937.2,2213l-12.3-24.2c-13.3,4.1-34.7,10.6-58.2,17.8l16.2,39.1C1905.1,2233,1924.5,2221.2,1937.2,2213z"
			/>
		<path class="st11" d="M1641.2,2256.9c-0.4,18.3-18.5,152.9-18.5,152.9s-98.4,1.2-173.2-0.1c-34.2-143.1-84.5-227.3-0.5-274.9
			C1567.8,2090.2,1652.6,2149.8,1641.2,2256.9z"/>
		<g>
			<path class="st23" d="M1541.8,2542.3c-0.2-0.9-15.3-95.5-18.8-192.7c-4.8-131.2,12.9-204.6,52.4-218c22.5-7.7,42.1-6.3,58.3,4
				c48.8,31.2,60.2,137.7,71.2,240.8c5.3,49,10.2,95.3,19,131.8l-3.7,0.9c-8.8-36.7-13.8-83.1-19.1-132.3
				c-10.9-102.2-22.2-207.8-69.5-238c-15.3-9.8-33.3-10.9-55-3.6c-90.6,30.8-31.7,402.7-31.1,406.5L1541.8,2542.3z"/>
			<g>
				<path class="st24" d="M1551.3,2669.5c34.1,19.9,188.3-7.2,209.1-36.7c-3.8-49-16.3-90.8-36.5-126.1
					c-62.6-1.8-122.9,9.3-181.1,31.8C1534.8,2575.3,1538.4,2632.2,1551.3,2669.5z"/>
				<path class="st25" d="M1723.9,2506.7c0,0,0.7,74.3-83.3,88.5c-84,14.2-97.8-56.8-97.8-56.8S1625.2,2502.3,1723.9,2506.7z"/>
				<path class="st26" d="M1650.4,2619.9L1650.4,2619.9c4.5-0.8,7.5-5.1,6.8-9.6l-5.2-29.7c-0.8-4.5-5.1-7.5-9.6-6.8l0,0
					c-4.5,0.8-7.5,5.1-6.8,9.6l5.2,29.7C1641.6,2617.7,1645.9,2620.7,1650.4,2619.9z"/>
			</g>
		</g>
		<path class="st19" d="M1569.1,2126.9c-87.1,28.7-120.1,7.9-120.1,7.9C1467.7,2120.3,1537.6,2109.9,1569.1,2126.9z"/>
		<path class="st12" d="M1267.4,2634.9c-0.5,0-0.9-0.3-0.9-0.8c-0.1-0.7-11.9-70.8-41.2-94.2c-0.4-0.3-0.5-0.9-0.2-1.4
			c0.3-0.4,0.9-0.5,1.4-0.2c29.9,23.9,41.4,92.5,41.9,95.4c0.1,0.5-0.3,1-0.8,1.1C1267.5,2634.9,1267.5,2634.9,1267.4,2634.9z"/>
		<path class="st12" d="M1207.4,2610.3c-0.2,0-0.4-0.1-0.5-0.2c-0.3-0.2-32-22.4-39.7-61c-0.1-0.5,0.2-1,0.8-1.1
			c0.5-0.1,1,0.2,1.1,0.8c7.5,37.8,38.6,59.6,38.9,59.8c0.4,0.3,0.5,0.9,0.2,1.3C1208,2610.2,1207.7,2610.3,1207.4,2610.3z"/>
		<path class="st11" d="M1753.5,2241.2c24.1-7.4,72.1-22,113.2-34.5l16.2,39.1c-51.8,29.6-83.3,46-120,54.1
			c-10.6,2.6-49.6-0.1-56.6-6.3l47.3-53L1753.5,2241.2z"/>
		<path class="st11" d="M1550,2182.5c21.1-56.2,78.1-35.6,78.1-35.6l125.5,93.6c0,0-10.8,63.5-40.5,55.1
			c-57.9-16.5-122.2-51-122.2-51S1530.7,2233.8,1550,2182.5z"/>
	</g>
	<g>
		<path class="st27" d="M2593,780.7l-59.2-189c-115.1,22.3-158.2,48.7-253.6,59.1l13.6,129.9L2593,780.7L2593,780.7z"/>
		<path class="st27" d="M2410.5,608.2c0,0-201.6,41.6-276,69c-42.7,15.7-53.3,51-36.8,78.2c24.4,40.2,313.6,11.7,313.6,11.7
			C2511,739.1,2458.2,606.4,2410.5,608.2z"/>
		<path class="st19" d="M2097.7,740.2c0,0-5.1,48.9,85.1,56.8c102.7,8.9,189.4,6.3,189.4,6.3l9.2-38.8c0,0-182.2-61.8-226.8-64.5
			C2101.5,696.9,2097.7,740.2,2097.7,740.2z"/>
		<path class="st27" d="M2300.2,686.7c0,0-40.6-61.8,60.1-109.6c100.7-47.8,168.5,0,151.7,57.9c-16.8,57.9-76.2,96.6-76.2,96.6
			S2335.5,732,2300.2,686.7z"/>
		<path class="st19" d="M2421.1,670.4c-59,1.9-82.4-62.4-82.4-62.4l-6.1-39.1l-5.1-32.5l83.5-23.2l23.9,56.9c0,0,5.1,13.7,7.4,31.5
			C2445.2,624.3,2443.6,653.6,2421.1,670.4z"/>
		<path class="st28" d="M2442.3,601.6c-46.1,3-84.6-15.5-109.7-32.6l-5.1-32.5l83.5-23.2l23.9,56.9
			C2434.9,570.2,2440,583.8,2442.3,601.6z"/>
		<g>
			<path class="st27" d="M2675.9,538.6l-0.1,1.7l-233.5,61.4l94.6,144.9c0,0,186.2-111.9,212.7-169c0.9-2,1.7-4.6,2.5-7.5
				L2675.9,538.6z"/>
			<path class="st19" d="M2729.8,326.7l-44.1,2.7l-9.9,209.2l76.2,31.4C2764.6,517.7,2729.8,326.7,2729.8,326.7z"/>
		</g>
		<g>
			<path class="st20" d="M2387.9,363.4c0,0,14.5-6.4,27.6,6.4c13.1,12.8,3.7,30,3.7,30s23.5,10.3,9.8,33.2
				C2400.9,479.7,2335.8,390.8,2387.9,363.4z"/>
			<path class="st19" d="M2425.8,439c20.4,55.8,22.6,121.7-10.6,131.6c-56.2,16.6-129.5-2-152-65.8c-22.4-63.7-3.2-116.8,48.1-134.9
				C2362.6,351.9,2402.6,375.6,2425.8,439z"/>
			<path class="st20" d="M2398.4,368.4c-2.8,14.7-23.4,51.8-118.3,73.7c-4.8,17.3-3.2,36.6,2.2,55.1c-7.7,3.6-13,2.4-13,11.5
				c0,12.5,10.2,31.8,22.7,31.8c3.2,0,6.2-0.7,9-1.8c9.9,16,21.7,29,32.4,36.1c-23.9,0-44-5.4-60.2-14.5
				c-26.5,1.7-47.6-24.3-39.7-42.5c-22.7-1.7-28.5-40.9-10-57.2c-12-14.6-14.4-56,21.5-59.5c-13.4-15.3,6.9-48.8,41.2-38
				c-1.2-27.2,45.1-47.4,61.9-23.5C2368,317,2403.4,340.1,2398.4,368.4z"/>
		</g>
		<path class="st19" d="M2379.2,763.8l57.5-12c0,0,37.1,17.7,48.6,40.8c-8.4,9.5-31.4-10.5-31.4-10.5s2.3,38.6-3.3,45.9
			s-33.9,12.2-43.2,4.3c-9.3-8,6.9-17.4,6.9-17.4l-42.1-11.5C2372.1,803.3,2352.5,774,2379.2,763.8z"/>
		<g>
			<path class="st20" d="M2674.7,70.7c-34.2-46.8-99.8-57-146.6-22.8s-57,99.8-22.8,146.6c34.2,46.8,99.8,57,146.6,22.9
				C2698.7,183.1,2708.9,117.5,2674.7,70.7z M2527.7,178c-25.1-34.4-17.6-82.6,16.8-107.7c34.4-25.1,82.6-17.6,107.7,16.8
				c25.1,34.4,17.6,82.6-16.8,107.7C2601.1,219.9,2552.9,212.4,2527.7,178z"/>
			
				<rect x="2657.4" y="193.4" transform="matrix(0.8075 -0.5899 0.5899 0.8075 368.2503 1625.7876)" class="st20" width="35.1" height="110.7"/>
			<path class="st20" d="M2716,349.3l-55.2-75.6c-7.7-10.5-5.4-25.2,5.1-32.9l4.5-3.3c10.5-7.7,25.2-5.4,32.9,5.1l55.2,75.6
				c7.7,10.5,5.4,25.2-5.1,32.9l-4.5,3.3C2738.4,362.1,2723.7,359.8,2716,349.3z"/>
		</g>
		<path class="st19" d="M2683.5,348.6c-1.5-0.7-20.3-27.7-13-53.1c7.4-25.4,22.1-30.4,22.1-30.4s15.7,7.2,6.3,23.4
			c-9.4,16.2,40.4,49.3,13.3,64.4C2696.1,361.9,2683.5,348.6,2683.5,348.6z"/>
		<path class="st19" d="M2724.2,263.8c0,0-5.8-0.9-3.8,8.3c2,9.2,27.7,48.4,38,46.2C2768.8,316.1,2748.3,268.1,2724.2,263.8z"/>
		<path class="st19" d="M2410.6,435.5c0-0.9-0.7-1.6-1.6-1.6c-0.9,0-1.6,0.7-1.6,1.6c0,0.9,0.7,1.6,1.6,1.6
			C2409.8,437.1,2410.6,436.3,2410.6,435.5z"/>
	</g>
	<path class="st2" d="M2648.6,182.6c7.1-8.3,12.5-18.2,15.6-29.4c11.4-41-12.7-83.5-53.7-94.9c-19.4-5.4-39.1-2.8-55.8,5.7
		L2648.6,182.6z"/>
	<g>
		<g>
			<path class="st29" d="M4302.3,2478.6c-31,18-144.5,189.5-204,408.9c70.1,86.1,176.8,43.6,176.8,43.6l92.1-381.5
				C4367.2,2549.6,4369.3,2473.4,4302.3,2478.6z"/>
			<path class="st30" d="M4233.4,3104.6c0,0,345.5-179.6,415.3-132.3c37.1,25.1,60.3,430.6,60.3,430.6l-69.5,0.4l-68.6-283.5
				l-244.6,169.3C4169.6,3354.2,4123,3170.2,4233.4,3104.6z"/>
			<path class="st2" d="M4638.7,3395.7l69.3-4.6c0,0,135.6-4.5,121.4,79.5c-67.2-0.5-187.6,1.5-187.6,1.5L4638.7,3395.7z"/>
			<path class="st30" d="M4754.2,3418.3L4754.2,3418.3c-1.3-1-1.7-2.9-0.7-4.2l12.9-18.5c1-1.3,2.9-1.7,4.2-0.7l0,0
				c1.3,1,1.7,2.9,0.7,4.2l-12.9,18.5C4757.4,3419,4755.5,3419.3,4754.2,3418.3z"/>
			<path class="st30" d="M4737.7,3412.9L4737.7,3412.9c-1.3-1-1.7-2.9-0.7-4.2l12.9-18.5c1-1.3,2.9-1.7,4.2-0.7l0,0
				c1.3,1,1.7,2.9,0.7,4.2l-12.9,18.5C4741,3413.6,4739.1,3413.9,4737.7,3412.9z"/>
			<path class="st30" d="M4718.8,3410.5L4718.8,3410.5c-1.3-1-1.7-2.9-0.7-4.2l12.9-18.5c1-1.3,2.9-1.7,4.2-0.7l0,0
				c1.3,1,1.7,2.9,0.7,4.2l-12.9,18.5C4722,3411.1,4720.1,3411.5,4718.8,3410.5z"/>
			<path class="st30" d="M4179.7,3034.9c-2.2,2.7-125.7,261.7,83.4,268C4472.3,3309.1,4304.2,2881.1,4179.7,3034.9z"/>
			<polygon class="st31" points="4374.6,2652.1 4337.2,2771.4 4253.2,2717.4 4323.1,2621.9 			"/>
			<g>
				<path class="st31" d="M4454,2506.6c0,0,11.1,29.2,8.3,78.4c3.2,13.5,8.5,23,6.7,29.6c-1.8,6.6-8.2,5.6-16.3,8.5
					c-7.6,27.3-36.3,85.2-96.5,53.9c-84.9-44.1-75.2-183.9-6.5-204.2C4412,2454.5,4442.4,2484.1,4454,2506.6z"/>
				<path class="st29" d="M4463.1,2533c0,0-108.6,10.2-150.1,102.7c-57.7-37.4-57.8-140.4,15-174.4
					C4426.1,2421,4464.4,2504.1,4463.1,2533z"/>
			</g>
			<path class="st2" d="M4140.5,3195.4c0.6,4.6,5.9,6.9,9.7,4.2l165.5-115l48.7-33.8c4.2-2.9,3.3-9.4-1.5-11l0,0
				c-3.5-1.2-5.2-5.1-3.6-8.5c21.9-47.9,53.8-124.3,52.2-159.9c-2-43-49.4-128.1-55.4-138.7c-0.4-0.7-0.9-1.4-1.6-1.9
				c-6.8-5.3-47-36.3-69.4-50.8c-1.9-1.2-4.2-1.3-6.2-0.3c-2.4,1.2-4.6,2.5-6.9,3.7c-109.3,62.8-54.8,185.9-92.7,343.1
				c-0.1,0.4-0.2,0.8-0.4,1.1C4137,3121.5,4137.7,3175,4140.5,3195.4z"/>
			<path class="st32" d="M4142.5,3205c23.9,11.5,162.8-16.5,173.3-120.4c-16-57,66.6-240.2,39.1-313.2
				c-15.4-40.9-62.8-79.3-82.9-87.9c-109.4,62.8-54.7,186.2-92.8,343.7C4123.5,3151.2,4142.5,3205,4142.5,3205z"/>
			<path class="st31" d="M4364.8,2580.6c5.3,10.6,1.6,23.6-8.2,29.2c-9.8,5.6-22.1,1.6-27.4-9c-5.3-10.6-1.6-23.6,8.2-29.2
				C4347.3,2566,4359.5,2570.1,4364.8,2580.6z"/>
			<polygon class="st30" points="4833.1,3454.9 4635.5,3456 4636.4,3472.4 4833.1,3471.7 			"/>
		</g>
		<g>
			
				<rect x="4526.4" y="2617.8" transform="matrix(0.4979 -0.8672 0.8672 0.4979 29.7056 5299.3369)" class="st1" width="130.3" height="12.4"/>
			<path class="st31" d="M4542.5,2700.7l31.3,8c0,0,1.1,49.8-2.9,106.8l-59.5-18.7L4542.5,2700.7z"/>
			<path class="st32" d="M4323.8,2753l159.5,130.2l28.1-86.5l59.5,18.7c-4.8,68-16.8,146.2-46.4,162.3
				c-54.5,29.6-279.2-135.9-279.2-135.9L4323.8,2753z"/>
			<path class="st31" d="M4573.8,2710.4c1,0,33.2-24.1,35.1-47c1.9-22.9-15.2-31.3-15.2-31.3s-17.8,28.4-26.3,24.8
				c-4.3-1.8,14.2-18.9,3.5-22.8c-8.8,8-19.8,21.8-26.1,33.9c-4.9,9.4-3,35.2-3,35.2L4573.8,2710.4z"/>
		</g>
	</g>
</g>
</svg>
