<?xml version="1.0" encoding="utf-8"?>
<!-- Generator: Adobe Illustrator 24.3.0, SVG Export Plug-In . SVG Version: 6.00 Build 0)  -->
<svg version="1.1" xmlns="http://www.w3.org/2000/svg" xmlns:xlink="http://www.w3.org/1999/xlink" x="0px" y="0px"
	 viewBox="0 0 2475 1650" style="enable-background:new 0 0 2475 1650;" xml:space="preserve">
<style type="text/css">
	.st0{fill:#FFE38B;}
	.st1{fill:#FFD03D;}
	.st2{fill:#FFECB1;}
	.st3{fill:#FFD964;}
	.st4{fill:#BF9C2E;}
	.st5{fill:#80681F;}
</style>
<g id="Background">
</g>
<g id="Illustration">
	<g>
		<path class="st0" d="M1479.91,354.72l-160.52-81.22c-3.3-1.67-7.12-2.02-10.67-0.96l-194.64,57.81
			c-5.24,1.56-9.16,5.94-10.14,11.32c-0.97,5.38,1.17,10.86,5.54,14.15l127.99,96.44L1479.91,354.72z"/>
		<path class="st1" d="M175.42,644.76c0,0,1818.14-490.97,1892.21-474.15c74.06,16.81,209.51,82.09,247.49,78.95
			c37.99-3.15,172.83,8.64,146.5,106.43S928.98,876.85,745.41,830.86c-183.57-45.99-645.05-122.52-645.05-122.52
			S53.23,647.23,175.42,644.76z"/>
		<path class="st1" d="M702.28,509.45L423.81,384.66c-17.46-7.82-32.37-20.39-43.05-36.27L256.54,163.54
			c-9.84-14.65-28.11-21.17-45-16.06C157.47,163.87,45.43,199.43,46,212.44c0.75,17.15,93.59,441.3,93.59,441.3L702.28,509.45z"/>
		<path class="st2" d="M197.98,704.71l-14.3,92.36c-2.41,15.58,2.4,30.81,13.15,42.35c10.75,11.54,26.14,16.91,41.86,15.61
			l93.9-7.78c14.83-1.23,28.45-8.21,37.26-20.2l151.16-205.21L197.98,704.71z"/>
		<path class="st3" d="M1191.4,923.64c0,0,62.76,65.08,155.35,57.41c92.59-7.67,204.43-42.75,223.08-77.28
			c18.65-34.53,44.18-280.33-140.96-229.93C1243.74,724.24,1033.45,852.1,1191.4,923.64z"/>
		<path class="st0" d="M1065.29,682.43L1497.6,568.4l-328.73,504.38c-4.61,7.07-11.96,11.89-20.29,13.3l-261.01,44.04
			c-11.3,1.91-22.7-2.74-29.45-12c-6.75-9.26-7.68-21.54-2.4-31.71L1065.29,682.43z"/>
		<path class="st1" d="M1546.25,912.45c1.15,0.14,2.25,0.1,3.31-0.13c5.8-1.27,11.17-7.85,15.97-19.56
			c15.41-37.65,20.62-115.92-16.05-172.04l0,0c-10.87-16.62-29.18-26.33-49.02-26.05c-16.29,0.26-36.55,6.83-40.64,36.64
			c-6.39,46.73,46.53,148.7,73.76,173.85C1538.37,909.57,1542.55,911.99,1546.25,912.45z M1507.29,703.06
			c14.31,1.78,27.49,9.85,35.46,22.05l0,0c34.69,53.09,29.66,129.61,15.34,164.6c-4.15,10.15-8.11,14.29-10.25,14.76
			c-0.28,0.07-2.75,0.39-8.82-5.22c-28.31-26.16-76.89-125.59-71.24-166.87c2.69-19.67,13.42-29.38,32.8-29.69
			C1502.84,702.65,1505.08,702.78,1507.29,703.06z"/>
		<g>
			<g>
				<path class="st4" d="M843.42,601.24c-1.24-15,9.91-28.16,24.9-29.4l1.73-0.14c15-1.24,28.16,9.91,29.4,24.9l1.47,17.73
					c1.24,15-9.91,28.16-24.9,29.4l-1.73,0.14c-15,1.24-28.16-9.91-29.4-24.9L843.42,601.24z"/>
				<path class="st4" d="M946.81,584.62c-1.24-15,9.91-28.16,24.9-29.4l1.73-0.14c15-1.24,28.16,9.91,29.4,24.9l1.47,17.74
					c1.24,15-9.91,28.16-24.9,29.4l-1.73,0.14c-15,1.24-28.16-9.91-29.4-24.9L946.81,584.62z"/>
				<path class="st5" d="M1048.88,551.99c-1.24-15,9.91-28.16,24.9-29.4l1.73-0.14c15-1.24,28.16,9.91,29.4,24.9l1.47,17.74
					c1.24,15-9.91,28.16-24.9,29.4l-1.73,0.14c-15,1.24-28.16-9.91-29.4-24.9L1048.88,551.99z"/>
				<path class="st5" d="M1143.6,528.03c-1.24-15,9.91-28.16,24.9-29.4l1.73-0.14c15-1.24,28.16,9.91,29.4,24.9l1.47,17.74
					c1.24,14.99-9.91,28.16-24.9,29.4l-1.73,0.14c-15,1.24-28.16-9.91-29.4-24.9L1143.6,528.03z"/>
				<path class="st5" d="M1254.34,502.74c-1.24-15,9.91-28.16,24.9-29.4l1.73-0.14c15-1.24,28.16,9.91,29.4,24.9l1.47,17.74
					c1.24,14.99-9.91,28.16-24.9,29.4l-1.73,0.14c-15,1.24-28.16-9.91-29.4-24.9L1254.34,502.74z"/>
				<path class="st5" d="M1357.07,478.11c-1.24-15,9.91-28.16,24.9-29.4l1.73-0.14c15-1.24,28.16,9.91,29.4,24.9l1.47,17.73
					c1.24,15-9.91,28.16-24.9,29.4l-1.73,0.14c-15,1.24-28.16-9.91-29.4-24.9L1357.07,478.11z"/>
				<path class="st5" d="M1459.13,445.48c-1.24-15,9.91-28.16,24.9-29.4l1.73-0.14c15-1.24,28.16,9.91,29.4,24.9l1.47,17.73
					c1.24,15-9.91,28.16-24.9,29.4l-1.73,0.14c-15,1.24-28.16-9.91-29.4-24.9L1459.13,445.48z"/>
				<path class="st5" d="M1554.52,429.52c-1.24-14.99,9.91-28.16,24.9-29.4l1.73-0.14c15-1.24,28.16,9.91,29.4,24.9l1.47,17.73
					c1.24,15-9.91,28.16-24.9,29.4l-1.73,0.14c-14.99,1.24-28.16-9.91-29.4-24.9L1554.52,429.52z"/>
				<path class="st5" d="M1657.25,404.9c-1.24-15,9.91-28.16,24.9-29.4l1.73-0.14c15-1.24,28.16,9.91,29.4,24.9l1.47,17.74
					c1.24,15-9.91,28.16-24.9,29.4l-1.73,0.14c-15,1.24-28.16-9.91-29.4-24.9L1657.25,404.9z"/>
				<path class="st5" d="M1759.32,372.27c-1.24-15,9.91-28.16,24.9-29.4l1.73-0.14c15-1.24,28.16,9.91,29.4,24.9l1.47,17.73
					c1.24,15-9.91,28.16-24.9,29.4l-1.73,0.14c-15,1.24-28.16-9.91-29.4-24.9L1759.32,372.27z"/>
				<path class="st5" d="M1854.71,356.31c-1.24-15,9.91-28.16,24.9-29.4l1.73-0.14c14.99-1.24,28.16,9.91,29.4,24.9l1.47,17.73
					c1.24,14.99-9.91,28.16-24.9,29.4l-1.73,0.14c-14.99,1.24-28.16-9.91-29.4-24.9L1854.71,356.31z"/>
			</g>
			<path class="st2" d="M2201.3,217.01l-178.37,65.82c-13.4,4.96-21.38,18.77-18.94,32.84c2.9,16.73,7.02,35.56,10.64,33.64
				c6.41-3.4,286.61-99.8,286.61-99.8L2201.3,217.01z"/>
		</g>
	</g>
</g>
</svg>
